# xmcd CD database file
#
# Track frame offsets:
#	150
#	15127
#	30602
#	44055
#	56052
#	68480
#	80000
#	91820
#	103800
#	114882
#	126377
#	138225
#	147977
#	163195
#	174865
#	184605
#	195672
#	208867
#	220740
#	235970
#	249492
#
# Disc length: 3484 seconds
#
# Revision: 2
# Processed by: cddbd v1.5.1PL0 Copyright (c) Steve Scherf et al.
# Submitted via: CDex 1.51
#
DISCID=250d9a15
DTITLE=Various Artist - Original Oldies Country Volume 1, Disk 5
DYEAR=1900
DGENRE=Country
TTITLE0=Jeanie C. Riley - Harper Valley PTA
TTITLE1=Cal Smith - Country Bumpkin
TTITLE2=David Houston - Almost Persuaded
TTITLE3=Jody Miller - Queen Of The House
TTITLE4=Porter Wagner - The Carroll County Accident
TTITLE5=Sammi Smith - Help Me Make It Through The Night
TTITLE6=Henson Cargill - Skip A Rope
TTITLE7=Wanda Jackson - Right Or Wrong
TTITLE8=Stonewall Jackson - Waterloo
TTITLE9=Wilma Lee and Stoney Cooper - Big Midnight Special
TTITLE10=Skeeter Davis - The End Of The World
TTITLE11=Ned Miller - From A Jack To A King
TTITLE12=Al Hurt and Ace Cannon - Paper Roses
TTITLE13=Bonnie Guitar - Dark Moon
TTITLE14=Charley Pride - Kiss An Angel Good Mornin' (Live)
TTITLE15=Don Gibson - Oh, Lonesome Me
TTITLE16=Lynn Anderson - Top Of The World
TTITLE17=Jack Greene - There Goes My Everything
TTITLE18=Melba Montgomery - No Charge
TTITLE19=Dickey Lee - 9,999,999 Tears
TTITLE20=Johnny Paycheck - Take This Job And Shove It
EXTD=
EXTT0=
EXTT1=
EXTT2=
EXTT3=
EXTT4=
EXTT5=
EXTT6=
EXTT7=
EXTT8=
EXTT9=
EXTT10=
EXTT11=
EXTT12=
EXTT13=
EXTT14=
EXTT15=
EXTT16=
EXTT17=
EXTT18=
EXTT19=
EXTT20=
PLAYORDER=
